<?xml version="1.0" standalone="no"?>
<!DOCTYPE svg PUBLIC "-//W3C//DTD SVG 20010904//EN"
 "http://www.w3.org/TR/2001/REC-SVG-20010904/DTD/svg10.dtd">
<svg version="1.0" xmlns="http://www.w3.org/2000/svg"
 width="1123.000000pt" height="1123.000000pt" viewBox="0 0 1123.000000 1123.000000"
 preserveAspectRatio="xMidYMid meet">
<metadata>
Created by potrace 1.14, written by Peter Selinger 2001-2017
</metadata>
<g transform="translate(0.000000,1123.000000) scale(0.100000,-0.100000)"
fill="#000000" stroke="none">
<path d="M1766 9563 c-3 -3 -6 -1401 -6 -3105 l0 -3098 48 -1 c26 0 65 -2 87
-4 22 -2 85 -6 140 -10 55 -3 114 -8 130 -10 32 -4 80 -10 180 -21 33 -3 69
-8 80 -10 11 -2 40 -7 65 -10 158 -20 370 -62 585 -115 659 -165 1252 -449
1759 -843 162 -126 232 -190 439 -398 l188 -190 -68 94 c-37 51 -72 98 -78
104 -6 6 -28 37 -50 70 -22 32 -42 61 -45 64 -32 31 -325 466 -472 700 -385
612 -687 1231 -865 1770 -61 186 -140 480 -158 590 -3 19 -8 46 -10 60 -13 65
-27 154 -39 245 -20 156 -26 259 -26 450 0 159 2 208 15 345 30 327 137 681
294 980 25 47 50 95 55 107 6 13 14 23 19 23 4 0 7 5 7 10 0 11 76 130 152
237 111 158 327 394 503 549 568 502 1356 889 2295 1125 163 41 163 41 249 58
30 6 57 14 60 17 5 5 -67 -2 -119 -12 -14 -2 -34 -6 -45 -8 -11 -2 -42 -7 -69
-10 -27 -4 -52 -9 -56 -11 -3 -2 -26 -6 -50 -10 -25 -3 -52 -8 -60 -10 -8 -2
-31 -7 -50 -10 -19 -3 -75 -15 -125 -27 -49 -11 -126 -28 -170 -38 -172 -39
-420 -110 -635 -180 -356 -118 -714 -276 -1046 -461 l-40 -22 -60 44 c-32 24
-61 47 -64 50 -3 3 -54 39 -115 80 -377 255 -812 453 -1310 598 -123 36 -399
103 -478 116 -17 3 -77 14 -132 25 -55 11 -118 22 -140 25 -53 8 -161 23 -205
29 -19 3 -56 8 -82 11 -27 3 -67 7 -90 10 -54 7 -130 13 -238 20 -47 3 -99 8
-116 10 -17 3 -34 2 -38 -2z"/>
<path d="M9090 9530 c-19 -4 -51 -10 -70 -14 -112 -21 -305 -62 -435 -93 -82
-19 -161 -37 -175 -39 -26 -5 -153 -38 -305 -79 -308 -84 -602 -181 -880 -290
-88 -34 -166 -64 -173 -67 -9 -2 1 -23 32 -66 l46 -62 80 40 c324 163 809 351
1240 482 71 21 329 94 455 128 80 22 99 27 210 54 61 14 39 20 -25 6z"/>
<path d="M7316 9351 c-4 -5 3 -7 14 -4 23 6 26 13 6 13 -8 0 -17 -4 -20 -9z"/>
<path d="M9095 9281 c-483 -208 -883 -412 -1217 -619 -79 -48 -154 -95 -167
-102 -14 -8 -30 -18 -35 -22 -276 -194 -452 -325 -496 -368 -9 -8 -38 -33 -65
-55 -72 -58 -332 -318 -405 -405 -354 -419 -544 -832 -605 -1315 -12 -95 -13
-448 -2 -505 3 -14 8 -47 12 -75 3 -27 8 -57 10 -65 2 -8 6 -31 9 -50 4 -30
27 -135 40 -192 93 -377 297 -838 584 -1318 104 -173 299 -467 431 -648 84
-115 340 -450 367 -481 2 -2 73 17 156 42 84 26 227 65 318 87 177 43 172 42
300 65 47 8 96 17 110 20 73 13 222 34 275 40 33 3 76 7 95 10 19 2 64 7 100
10 36 4 81 8 100 10 19 2 89 7 155 10 66 4 122 9 125 12 11 10 6 5993 -4 5992
-6 0 -92 -35 -191 -78z"/>
<path d="M6775 8822 c-97 -44 -362 -185 -465 -247 -52 -32 -104 -63 -115 -69
-46 -26 -342 -231 -355 -246 -3 -3 -17 -15 -32 -26 l-27 -21 99 -96 98 -97 54
51 c225 212 511 421 811 594 101 58 94 47 59 96 -17 24 -39 54 -49 66 l-18 22
-60 -27z"/>
<path d="M746 8200 c-1 -3 -2 -1310 -2 -2905 l1 -2900 25 1 c27 0 80 8 170 24
52 9 76 12 175 25 22 3 54 7 70 9 17 2 67 7 112 11 46 3 92 8 103 10 140 27
946 27 1180 0 19 -2 64 -7 100 -10 67 -6 296 -33 340 -40 14 -2 59 -9 100 -16
41 -6 82 -13 90 -14 18 -2 46 -7 246 -46 185 -36 174 -34 259 -54 39 -9 77
-18 85 -20 8 -2 53 -13 100 -25 47 -12 101 -25 120 -30 43 -11 47 -7 27 23
-17 27 -296 169 -475 242 -155 63 -456 163 -572 190 -8 2 -51 12 -95 23 -105
27 -257 58 -375 77 -52 8 -106 17 -120 19 -96 16 -334 41 -495 51 -113 7 -216
12 -437 20 -95 4 -184 8 -198 8 l-25 2 -2 2645 c-2 1455 -3 2654 -3 2665 0 20
-5 21 -251 21 -138 0 -251 -3 -253 -6z"/>
<path d="M9809 8205 c-1 0 -3 -1199 -3 -2665 l-2 -2665 -24 -2 c-14 0 -99 -4
-190 -8 -389 -15 -577 -26 -690 -40 -19 -2 -60 -7 -90 -10 -51 -6 -260 -36
-340 -50 -31 -5 -199 -39 -255 -52 -11 -2 -29 -6 -40 -8 -79 -18 -81 -18 -221
-58 -121 -35 -342 -109 -369 -125 -10 -5 14 -26 87 -72 56 -36 105 -64 108
-63 3 1 28 4 55 7 28 4 61 8 75 11 14 3 36 7 50 9 14 3 49 8 79 11 30 4 61 8
70 10 9 1 45 6 81 10 36 4 67 8 70 10 3 2 48 6 100 10 52 3 109 8 125 10 204
26 1038 26 1174 0 10 -2 52 -6 93 -10 81 -6 94 -8 258 -30 162 -23 180 -25
225 -36 22 -4 48 -9 58 -9 16 0 17 145 17 2908 l0 2908 -250 0 c-137 0 -251 0
-251 -1z"/>
<path d="M5501 7963 c-109 -108 -175 -179 -241 -262 -19 -24 -40 -48 -45 -55
-55 -60 -265 -386 -265 -411 0 -6 82 -39 183 -74 100 -35 187 -66 193 -68 6
-2 19 13 29 34 49 107 129 259 181 343 60 98 208 299 264 359 l32 35 -106 103
c-59 57 -109 103 -112 103 -3 0 -54 -48 -113 -107z"/>
<path d="M4829 6982 c-59 -135 -148 -458 -163 -587 -3 -28 -8 -60 -11 -73 -2
-12 -7 -55 -10 -95 -3 -39 -8 -93 -11 -119 -4 -45 -1 -51 26 -50 19 1 216 14
265 17 33 3 96 7 140 11 44 3 80 6 81 7 1 1 4 67 8 147 3 80 8 156 10 170 3
14 7 43 11 65 18 125 28 177 55 281 35 136 35 130 13 137 -10 3 -90 30 -178
62 -239 85 -213 82 -236 27z"/>
<path d="M5139 5876 c-4 -4 -57 -8 -282 -22 -54 -3 -106 -7 -115 -9 -9 -2 -38
-4 -65 -4 l-47 -1 5 -72 c11 -165 19 -239 41 -373 29 -175 58 -301 114 -500 5
-16 14 -49 21 -72 13 -49 20 -51 98 -24 31 11 143 47 249 81 105 34 192 63
192 64 0 2 -11 37 -24 77 -40 123 -94 340 -121 488 -26 141 -28 156 -40 286
-6 64 -15 92 -26 81z"/>
<path d="M5355 4716 c-39 -13 -157 -51 -263 -85 -127 -41 -192 -66 -189 -74
152 -380 240 -565 447 -935 19 -34 38 -62 43 -62 10 0 92 45 302 167 l170 98
-53 95 c-120 216 -259 502 -346 717 l-42 102 -69 -23z"/>
<path d="M5881 3584 c-52 -30 -95 -54 -97 -54 -3 0 -21 -11 -42 -24 -84 -53
-213 -126 -222 -126 -6 0 -10 -6 -10 -13 0 -16 260 -408 332 -502 5 -5 67 -89
140 -185 72 -96 158 -209 191 -250 34 -41 62 -76 63 -78 1 -2 46 29 99 69 54
40 150 106 214 146 64 41 115 79 114 84 -2 5 -47 66 -100 137 -107 140 -101
132 -205 277 -76 107 -289 423 -328 490 -13 22 -31 50 -40 62 l-17 22 -92 -55z"/>
<path d="M5475 1720 c10 -11 20 -20 23 -20 3 0 -3 9 -13 20 -10 11 -20 20 -23
20 -3 0 3 -9 13 -20z"/>
</g>
</svg>
